<svg width="17" height="16" viewBox="0 0 17 16" fill="none" xmlns="http://www.w3.org/2000/svg">
<path d="M13.1 6.375C13.47 6.555 13.86 6.67 14.27 6.72C14.68 6.77 15.09 6.755 15.5 6.675V15C15.5 15.21 15.425 15.39 15.275 15.54C15.135 15.68 14.96 15.75 14.75 15.75H1.25C1.04 15.75 0.86 15.68 0.71 15.54C0.57 15.39 0.5 15.21 0.5 15V3C0.5 2.79 0.57 2.615 0.71 2.475C0.86 2.325 1.04 2.25 1.25 2.25H11.075C11.025 2.49 11 2.74 11 3C11 3.45 11.075 3.885 11.225 4.305C11.385 4.715 11.61 5.09 11.9 5.43L8.045 8.76L3.23 4.68L2.27 5.82L8.06 10.74L13.1 6.375ZM14.75 5.25C14.34 5.25 13.96 5.15 13.61 4.95C13.27 4.75 13 4.48 12.8 4.14C12.6 3.79 12.5 3.41 12.5 3C12.5 2.59 12.6 2.215 12.8 1.875C13 1.525 13.27 1.25 13.61 1.05C13.96 0.85 14.34 0.749999 14.75 0.749999C15.16 0.749999 15.535 0.85 15.875 1.05C16.225 1.25 16.5 1.525 16.7 1.875C16.9 2.215 17 2.59 17 3C17 3.41 16.9 3.79 16.7 4.14C16.5 4.48 16.225 4.75 15.875 4.95C15.535 5.15 15.16 5.25 14.75 5.25Z" fill="white"/>
</svg>
