<svg width="12" height="17" viewBox="0 0 12 17" fill="none" xmlns="http://www.w3.org/2000/svg">
<path d="M8.9407e-08 16.5C8.9407e-08 15.41 0.275 14.4 0.825 13.47C1.355 12.57 2.07 11.855 2.97 11.325C3.9 10.775 4.91 10.5 6 10.5C7.09 10.5 8.1 10.775 9.03 11.325C9.93 11.855 10.645 12.57 11.175 13.47C11.725 14.4 12 15.41 12 16.5H8.9407e-08ZM6 9.75C5.18 9.75 4.425 9.545 3.735 9.135C3.055 8.735 2.515 8.195 2.115 7.515C1.705 6.825 1.5 6.07 1.5 5.25C1.5 4.43 1.705 3.675 2.115 2.985C2.515 2.305 3.055 1.765 3.735 1.365C4.425 0.954999 5.18 0.749999 6 0.749999C6.82 0.749999 7.575 0.954999 8.265 1.365C8.945 1.765 9.485 2.305 9.885 2.985C10.295 3.675 10.5 4.43 10.5 5.25C10.5 6.07 10.295 6.825 9.885 7.515C9.485 8.195 8.945 8.735 8.265 9.135C7.575 9.545 6.82 9.75 6 9.75Z" fill="white"/>
</svg>
