<svg width="206" height="21" viewBox="0 0 206 21" fill="none" xmlns="http://www.w3.org/2000/svg">
<path fill-rule="evenodd" clip-rule="evenodd" d="M67.419 12.2887C66.5878 12.242 66.3114 12.5621 65.2669 12.4549C65.7352 12.0545 67.15 11.9412 67.419 12.2887Z" fill="white"/>
<path fill-rule="evenodd" clip-rule="evenodd" d="M82.1546 11.0655C82.5041 11.0113 82.7493 11.0343 82.9456 11.0952C82.8452 11.2588 82.5177 11.3252 82.0708 11.3408C82.136 11.2637 82.1972 11.1866 82.1546 11.0655Z" fill="white"/>
<path fill-rule="evenodd" clip-rule="evenodd" d="M114.892 9.08356C114.998 9.49188 114.499 9.28289 114.017 9.32917C113.976 9.104 114.485 9.11612 114.892 9.08356Z" fill="white"/>
<path fill-rule="evenodd" clip-rule="evenodd" d="M184.814 7.63472C185.27 7.53302 185.081 7.92129 185.628 7.75032C185.611 7.92405 184.927 7.81191 185.262 8.13592C184.824 8.05201 184.713 7.88528 184.814 7.63472Z" fill="white"/>
<path fill-rule="evenodd" clip-rule="evenodd" d="M186.751 7.84212C187.029 8.05374 187.454 7.68463 187.45 7.52025C188.337 7.89793 188.589 7.47938 189.803 7.5177C189.923 7.72397 189.573 7.72986 189.769 7.96777C189.871 7.96038 189.974 7.95227 190.076 7.94413C190.275 7.90103 190.144 7.71465 190.135 7.58217C190.768 7.51882 191.126 7.67068 191.198 8.03609C190.227 8.22152 189.625 8.3939 188.559 8.14887C188.623 8.07324 188.683 7.99532 188.645 7.87429C188.591 7.77385 188.344 7.82218 188.158 7.82162C187.935 7.9655 188.214 8.11988 187.815 8.29532C187.212 8.35615 187.829 8.15723 187.438 8.05691C186.898 8.3648 186.226 8.04316 185.699 8.01145C185.9 7.89105 186.073 7.75832 186.219 7.61478C186.708 7.65039 186.656 7.83177 187.166 7.63124C187.128 7.74517 187.018 7.8268 186.751 7.84212Z" fill="white"/>
<path fill-rule="evenodd" clip-rule="evenodd" d="M24.433 11.7448C24.5086 11.4961 24.7812 11.956 25.224 11.7723C25.2445 11.7124 24.8273 11.6682 24.7403 11.7212C25.2015 11.45 29.317 10.9914 30.7707 10.8095C32.7582 10.562 34.7351 10.3285 36.2596 10.2094C33.2417 10.0213 29.5517 10.9317 26.5019 10.6918C26.9508 10.3677 28.2639 10.4119 28.8673 10.1526C24.6176 10.4107 19.7807 10.9916 15.0287 11.2176C15.644 10.7733 17.3382 10.7497 18.6258 10.5824C19.5561 10.4625 20.4674 10.3097 21.3454 10.1957C21.4078 9.86725 20.6578 10.1571 20.5061 9.99126C26.4381 8.76135 32.3456 8.29841 39.7739 7.52745C39.7937 7.33517 39.5084 7.37698 39.264 7.38818C46.6027 6.49765 56.7823 5.92938 62.174 5.62748C62.4442 5.63897 62.447 5.53641 62.4356 5.42842C80.6939 4.34583 101.966 3.53531 121.428 3.03441C123.044 2.99326 126.186 2.63971 128.11 2.78834C129.543 2.89909 131.796 2.71063 133.74 2.71234C139.259 2.71646 146.041 2.39975 150.366 2.68335C153.213 2.53355 156.142 2.54634 158.834 2.65744C159.007 2.66449 159.213 2.87206 159.366 2.88404C159.767 2.91534 160.426 2.73788 160.905 2.76589C162.18 2.84379 164.357 3.00291 166.321 3.06439C170.54 3.19397 174.869 3.43079 178.608 3.81637C178.688 3.95438 178.502 3.97836 178.524 4.09022C179.515 4.29769 180.786 4.09447 181.492 4.04113C181.889 3.94747 181.838 4.19802 182.024 4.26699C182.822 4.18381 185.225 4.65489 184.295 4.53905C183.696 4.70701 182.982 4.42414 182.756 4.6572C182.573 4.65668 182.583 4.50738 182.531 4.40622C180.625 4.74785 178.066 4.39043 176.003 4.64123C176.333 4.94657 177.395 4.58704 177.635 4.87319C177.287 5.00998 174.936 5.09808 174.49 4.84602C173.961 5.07004 171.48 5.18594 170.398 4.80385C167.805 5.47571 163.686 4.74909 161.668 5.02882C161.421 4.97231 161.372 4.76412 161.245 4.61499C159.252 5.36354 155.353 4.59933 153.508 5.03185C152.063 4.56326 150.293 5.54715 149.215 4.82606C149.024 4.89978 148.979 5.03591 149.001 5.19983C148.733 5.13111 148.362 5.16494 148.625 4.9607C147.869 5.29583 146.147 4.97551 145.548 5.19701C144.611 4.91525 142.239 5.50865 140.512 5.13843C139.462 5.57696 138.539 5.08202 137.484 5.54946C137.813 5.90313 137.958 5.51718 138.43 5.56592C138.485 5.5712 138.447 5.81749 138.502 5.82873C139.593 6.03622 145.799 5.62238 147.231 5.60299C150.067 5.5668 152.536 5.82846 155.083 5.62508C155.339 5.71072 155.41 5.93634 155.665 6.02716C156.037 5.98739 155.619 5.73425 155.438 5.77614C156.615 5.57746 158.27 5.86481 159.861 5.88202C160.256 5.88648 161.365 5.72097 161.401 5.76389C161.67 6.10105 164.135 5.58339 164.794 6.12717C163.786 6.20942 163.021 6.04031 162.333 6.31623C162.311 6.2289 162.287 6.14081 162.261 6.05491C161.421 6.19991 160.173 6.40942 159.731 5.98045C159.398 6.0565 159.955 6.10205 159.649 6.25581C159.243 6.13521 159.193 5.92775 158.477 5.98838C158.858 6.15098 156.951 6.46139 156.786 6.11761C156.556 6.17365 156.732 6.40232 156.218 6.33958C155.049 5.79856 154.25 6.73904 153.027 6.1392C152.529 6.13246 153.087 6.5773 152.507 6.53588C153.283 6.64271 153.667 6.88196 154.576 6.64578C155.044 6.83797 154.315 6.7928 154.362 7.01881C154.752 7.18527 154.969 6.88368 155.594 6.92356C155.61 6.81375 155.067 6.65613 155.108 6.87164C154.626 6.66439 155.955 6.63602 156.184 6.78966C156.421 7.07131 155.742 6.96148 155.462 7.02344C157.048 7.27851 158.333 6.33046 159.838 6.95536C159.591 7.02973 159.655 7.23813 159.472 7.34022C159.09 7.38504 159.045 7.1732 158.786 7.12469C157.998 7.49355 157.47 7.34508 156.883 7.62922C156.793 7.55648 156.706 7.48306 156.527 7.47814C156.839 7.09543 156.522 7.34496 156.197 7.41369C155.407 7.58027 153.349 7.43782 152.945 7.57376C151.456 8.07559 149.845 7.42234 148.924 7.7944C148.901 7.70705 148.877 7.6197 148.853 7.53159C148.449 7.80287 148.111 7.6238 147.515 7.81337C147.525 7.73991 147.648 7.715 147.624 7.62689C146.013 7.81088 145.123 7.53725 143.955 7.99855C142.696 7.05242 141.206 8.39965 139.947 7.68106C139.525 7.95206 138.909 7.68925 138.811 8.12573C138.694 7.86446 137.827 8.1734 137.923 7.74731C136.274 8.34487 131.531 8.05499 129.337 8.49715C129.292 8.27118 128.89 8.51422 128.476 8.20611C128.102 8.35293 128.082 8.53033 128.308 8.75456C128.01 8.52627 127.26 8.64066 126.961 8.41237C126.866 8.70686 126.074 8.70538 125.673 8.86889C125.22 8.78921 124.908 8.60755 124.477 8.51334C124.2 8.90325 123.523 8.65589 123.189 8.96985C123.159 8.66156 122.617 9.1241 122.61 8.56856C122.156 9.3841 120.097 8.66166 118.835 9.126C118.854 8.74113 119.182 8.96913 119.866 8.86786C119.452 8.65791 119.198 8.64071 118.588 8.78769C119.012 8.47285 118.121 8.79033 118.186 8.46192C117.963 8.66677 117.693 8.65527 117.996 8.92304C117.691 8.90953 117.783 8.59342 117.311 8.70753C117.061 8.88372 117.397 8.88579 117.581 9.13318C117.09 9.0797 116.657 9.05757 116.849 8.74223C116.228 8.73661 116.505 9.34602 116.022 9.16254C115.759 9.02623 115.826 8.97445 116.281 8.96493C115.445 8.80217 115.193 8.83036 114.259 9.03121C114.674 8.64633 113.663 9.18359 114.033 8.78095C113.774 9.01425 112.541 8.75258 112.829 8.96213C110.27 8.89542 108.677 9.39048 106.122 9.12083C105.58 9.80196 103.469 8.7196 102.917 9.45708C102.444 9.57192 102.627 9.18505 102.232 9.24157C101.062 9.59948 100.18 9.27022 99.5578 9.80515C98.0205 9.20877 95.4248 10.126 93.7044 9.63093C92.4821 9.79994 91.2089 9.87301 90.0146 9.91529C89.5198 9.90934 90.0072 10.3241 89.6719 10.3875C89.2125 10.4549 89.2736 10.1272 89.0929 9.9862C87.6088 10.1044 87.1258 10.173 85.7339 10.3335C86.8159 10.1988 87.6435 10.7459 88.4402 10.482C88.3174 10.4006 88.0638 10.4191 88.0625 10.2436C88.5357 10.128 88.3522 10.5149 88.7475 10.4584C88.6757 10.5406 87.8889 10.754 88.665 10.733C87.7465 10.8478 86.9743 10.6072 86.3954 10.4609C86.0419 10.5173 86.349 10.8543 86.05 10.9353C85.4835 11.1729 83.7028 10.6086 83.4624 11.2221C83.3475 10.8732 83.1182 10.8385 82.1368 10.968C82.171 10.6904 82.1995 10.792 82.018 10.5312C81.4032 10.5941 81.728 11.0511 81.853 11.079C81.8827 11.2765 81.435 10.9954 81.0842 11.1381C80.8974 10.878 81.4594 10.9385 81.274 10.6769C81.1461 10.7523 81.0819 10.854 81.0372 10.9634C80.7852 10.8741 80.7366 10.6302 80.3274 10.6612C79.9567 10.7345 79.8766 10.9333 79.4774 10.9942C79.5402 11.161 79.9627 10.852 80.3992 10.924C80.392 11.1396 80.731 11.0919 80.6696 11.3497C79.6035 11.4675 78.9867 11.4017 78.2089 11.5387C78.2234 11.4408 78.5014 11.4561 78.4692 11.3389C78.0431 11.189 78.1103 11.6704 77.7722 11.6601C77.6079 11.4673 77.7129 11.1759 76.8859 11.2832C76.8634 11.4747 77.1501 11.4321 77.3931 11.4224C76.7765 11.8667 75.0113 11.7487 74.0119 11.6824C74.2933 11.3818 74.7017 11.3217 74.9572 11.6988C75.1968 11.3106 75.1361 11.4398 75.6085 11.2022C74.2749 11.0432 72.4521 11.5415 71.5867 11.4221C71.5288 11.7135 71.8963 11.6781 72.1435 11.7368C72.6688 11.8072 72.1858 11.4445 72.7124 11.5141C72.7926 11.6529 72.6081 11.6762 72.6273 11.788C73.2273 11.8371 72.7827 11.4416 73.3269 11.4676C73.3385 11.8225 73.8448 11.3311 73.8824 11.7816C71.1476 11.8721 69.907 12.2155 67.426 12.2779C67.4252 12.1589 68.0195 12.066 67.379 12.1032C68.6487 11.9104 70.0263 11.7526 71.376 11.7959C70.8326 11.2851 69.2765 11.5897 68.3585 11.671C65.4723 11.9273 61.8325 12.6206 59.5956 12.3454C59.4344 12.3801 59.538 12.5274 59.3353 12.5444C51.1184 13.1288 42.1735 14.4458 34.877 14.9607C34.962 14.6096 35.9358 14.6391 36.6527 14.5569C36.4131 14.4217 35.8908 14.5053 35.7899 14.2666C33.9514 14.6799 31.1905 14.6815 28.9176 14.973C28.2974 15.0529 27.2252 15.5692 26.7641 15.1392C25.7071 15.6096 24.5991 15.4651 22.8611 15.7973C23.1113 15.5706 22.7985 15.7034 22.6376 15.5464C20.2007 15.889 17.2401 16.2333 14.4042 16.448C14.2177 16.3426 14.1699 16.1329 13.8486 16.1333C13.4047 16.3014 14.4012 16.4755 13.9896 16.6581C13.7269 16.6735 13.6095 16.7535 13.5764 16.8683C13.3104 16.755 12.8871 16.7613 12.7136 16.578C12.4033 16.6261 12.7822 16.9671 12.3474 16.9621C11.9331 17.0681 11.9165 16.8701 11.5537 16.9346C11.9557 16.5183 12.6922 16.6104 13.5897 16.3309C11.937 16.1105 10.9059 16.588 8.87084 16.8734C8.72629 17.107 9.55179 17.0993 9.11913 17.211C8.15983 17.0843 8.06023 16.8464 6.87168 17.027C7.07394 16.7773 8.01457 16.8427 8.15972 16.5698C5.75063 16.6265 3.56122 17.4465 0.739513 17.5847C0.885241 17.3601 1.92588 17.1148 1.32163 16.8261C2.41184 16.3243 3.72199 16.3945 5.02338 16.0059C4.66807 15.5767 6.04209 15.5684 6.74814 15.4273C9.98757 14.7808 14.2795 13.7061 18.3424 13.017C19.9476 12.7444 22.8153 12.4157 24.6343 11.9077C24.632 11.8036 24.5583 11.7549 24.433 11.7448ZM83.6731 10.8483C83.8282 10.519 83.1365 10.8365 83.1424 10.6217C83.7348 10.4775 84.405 10.8154 84.5022 10.428C84.0057 10.4414 83.0732 10.3538 82.8586 10.7327C83.3133 10.6317 83.2171 10.9508 83.6731 10.8483ZM84.7479 10.7663C85.016 10.7399 85.2339 10.7491 85.3872 10.8064C85.6354 10.6302 85.1348 10.5654 85.4227 10.3578C85.1789 10.1556 84.1902 10.4211 84.8538 10.5798C84.8348 10.4568 85.2213 10.4582 85.1846 10.6435C84.939 10.5625 84.7859 10.578 84.7479 10.7663ZM76.7525 11.3815C76.3683 11.3973 76.6302 11.0882 76.6598 11.0314C76.5068 11.0432 76.3525 11.0543 76.1982 11.0669C76.1716 11.2761 76.6087 11.65 76.7525 11.3815Z" fill="white"/>
<path fill-rule="evenodd" clip-rule="evenodd" d="M177.895 4.68356C178.164 4.63854 178.233 4.74218 178.074 4.75986C178.1 4.95134 178.63 4.75707 178.866 4.78887C178.803 4.86526 178.742 4.94315 178.782 5.06272C178.295 5.08217 177.998 4.9565 177.895 4.68356Z" fill="white"/>
<path fill-rule="evenodd" clip-rule="evenodd" d="M165.537 5.99172C167.082 5.98743 168.63 6.06497 170.704 5.95189C169.899 6.4231 167.408 6.20572 165.914 6.23085C165.762 6.17057 165.758 5.99801 165.537 5.99172Z" fill="white"/>
<path fill-rule="evenodd" clip-rule="evenodd" d="M177.516 5.60664C177.714 5.92933 179.144 5.78723 179.893 5.69143C179.804 5.46851 180.125 5.23911 179.834 4.89196C180.447 5.00676 180.944 5.00829 181.193 4.69751C181.7 4.76833 182.24 4.81437 182.412 5.14039C183.716 4.90644 186.07 5.32696 188.939 4.90536C188.962 5.06335 189.178 5.07551 189.187 5.24369C189.878 5.03102 189.745 4.93161 190.122 4.63613C191.043 5.20318 192.174 4.6179 193.859 4.52722C194.112 4.77417 193.981 4.82127 193.847 5.06314C193.221 5.06266 193.37 5.05078 192.771 5.14586C192.67 5.08189 192.573 5.01723 192.546 4.89563C191.974 4.86547 191.856 5.14997 191.47 4.97835C191.261 5.1715 191.513 5.08829 191.563 5.32846C191.047 5.40548 190.68 5.36874 190.701 5.03743C190.335 5.0364 190.115 5.09629 189.954 5.18384C189.951 5.39794 190.642 5.08115 190.488 5.4112C189.863 5.26798 189.742 5.4751 189.459 5.66862C188.86 5.6336 188.397 5.49503 187.696 5.53581C187.508 5.64079 187.801 5.67569 187.458 5.82222C186.809 5.72398 187.081 5.61208 187.163 5.30919C186.545 5.3988 186.565 5.84522 185.849 5.67832C185.77 5.54032 185.956 5.51634 185.931 5.4037C185.445 5.37705 185.395 5.53618 185.034 5.56198C185.173 5.63024 185.254 5.74745 185.283 5.90031C184.192 6.00735 184.12 5.74974 183.106 5.97838C183.192 5.89937 183.281 5.72003 183.034 5.71558C183.114 5.43572 183.472 5.78461 183.672 5.75565C184.125 5.56096 182.775 5.58305 183.247 5.34254C183.042 5.35805 182.838 5.37357 182.633 5.38982C182.24 5.42928 182.473 5.73466 182.287 5.86273C181.673 5.99254 180.237 6.3762 179.782 5.87788C179.352 5.84836 179.532 6.08083 179.392 6.17539C177.248 6.00932 175.065 6.32449 172.199 6.28217C171.887 5.96743 172.577 6.08188 172.391 5.82109C173.023 5.83356 173.245 5.66959 173.75 5.62736C174.035 5.91271 175.167 5.83084 175.687 5.83493C175.61 5.68431 175.371 5.65619 175.027 5.70827C175.288 5.21401 175.774 5.68009 176.365 5.42649C176.103 5.62778 176.477 5.59325 176.612 5.76406C176.788 5.49605 177.385 5.89168 177.516 5.60664ZM180.792 5.53243C180.873 5.75374 181.108 5.85468 181.501 5.83605C181.588 5.64031 181.9 5.54016 181.822 5.27577C180.799 5.23957 181.757 5.69267 180.792 5.53243Z" fill="white"/>
<path fill-rule="evenodd" clip-rule="evenodd" d="M203.662 7.70216C203.653 7.83736 203.5 7.87446 203.296 8.08702C202.209 7.84985 201.337 8.48662 201.073 7.99116C200.632 8.12432 199.889 8.02542 199.075 8.14554C199.076 8.01617 199.527 8.07871 199.491 7.93467C199.46 7.80409 198.719 8.01007 198.768 8.16917C198.556 8.16674 198.381 7.82728 198.459 8.19205C197.904 8.18668 197.704 7.98886 197.207 8.19925C197.176 8.08279 197.145 7.96633 197.113 7.84986C196.911 7.89292 197.043 8.07856 197.053 8.21106C196.638 8.28066 196.82 7.89675 196.497 7.89637C196.279 7.95333 196.587 8.00405 196.568 8.15916C196.209 8.18649 195.85 8.21455 195.493 8.2419C195.145 7.81583 195.504 7.75058 195.432 7.44241C198.514 7.50732 201.436 7.45309 204.645 7.26932C204.805 7.7699 205.781 7.08339 205.864 7.71146C204.848 7.37497 204.704 8.05762 203.889 7.95244C204.307 7.7126 203.985 7.8587 203.662 7.70216Z" fill="white"/>
<path fill-rule="evenodd" clip-rule="evenodd" d="M192.156 7.51596C193.329 7.62058 194.008 7.44787 195.149 7.55425C194.982 7.84691 194.9 7.81446 195.162 8.17902C193.403 8.44405 193.294 8.15243 191.425 8.28719C190.97 7.73235 192.098 7.85191 192.156 7.51596Z" fill="white"/>
</svg>
