<svg width="177" height="10" viewBox="0 0 177 10" fill="none" xmlns="http://www.w3.org/2000/svg">
<path fill-rule="evenodd" clip-rule="evenodd" d="M23.6547 3.89145C23.7449 3.6609 23.9696 4.11776 24.4038 3.97614C24.4277 3.92076 24.0347 3.8479 23.9482 3.89176C24.4062 3.66845 28.3478 3.53776 29.7416 3.47272C31.6471 3.38493 33.5414 3.30962 34.9978 3.30943C32.1462 2.90732 28.5751 3.49848 25.6971 3.04484C26.1473 2.77032 27.3909 2.9096 27.983 2.70803C23.9288 2.63837 19.2931 2.83171 14.7644 2.69438C15.3815 2.31806 16.9919 2.42111 18.2269 2.35764C19.1191 2.31273 19.9957 2.23508 20.8378 2.19191C20.9214 1.88466 20.1877 2.10434 20.056 1.93563C25.7795 1.20715 31.4229 1.20508 38.5331 1.02318C38.5662 0.842082 38.2922 0.86065 38.0593 0.853184C45.0934 0.551114 54.8009 0.765427 59.9427 0.878074C60.1984 0.908997 60.2087 0.811821 60.2058 0.708441C77.6222 1.0327 97.8803 1.8385 116.396 2.80418C117.934 2.8848 120.943 2.78182 122.759 3.06543C124.111 3.27666 126.264 3.26457 128.111 3.41021C133.351 3.82285 139.813 4.02437 143.899 4.61395C146.613 4.68254 149.393 4.91161 151.941 5.21651C152.105 5.23596 152.285 5.44829 152.43 5.47106C152.808 5.53044 153.447 5.41079 153.9 5.47285C155.104 5.64123 157.16 5.95356 159.02 6.15733C163.016 6.59281 167.109 7.13833 170.631 7.78129C170.696 7.91828 170.518 7.92728 170.531 8.03511C171.456 8.30547 172.678 8.20666 173.352 8.2083C173.736 8.14878 173.67 8.38292 173.841 8.46216C174.605 8.44226 176.851 9.06748 175.977 8.88866C175.395 9.00375 174.738 8.68228 174.507 8.88687C174.333 8.87284 174.354 8.73183 174.312 8.63192C172.477 8.8151 170.074 8.28626 168.096 8.37159C168.387 8.68594 169.422 8.42321 169.628 8.71268C169.288 8.81677 167.049 8.72633 166.645 8.454C166.125 8.62749 163.761 8.55383 162.762 8.11089C160.25 8.55677 156.393 7.56182 154.456 7.67797C154.226 7.60601 154.195 7.4047 154.085 7.25369C152.138 7.81688 148.493 6.80253 146.708 7.07655C145.371 6.5246 143.617 7.32771 142.647 6.56317C142.461 6.61907 142.408 6.74498 142.417 6.90228C142.167 6.81718 141.812 6.8218 142.077 6.64734C141.334 6.90956 139.723 6.47792 139.138 6.64388C138.269 6.30692 135.973 6.69473 134.361 6.21528C133.331 6.55389 132.492 6.01564 131.455 6.38128C131.741 6.74146 131.908 6.38578 132.352 6.46701C132.404 6.47609 132.35 6.70715 132.401 6.72186C133.422 6.9997 139.345 7.06634 140.706 7.15396C143.401 7.32961 145.727 7.76095 148.16 7.75648C148.397 7.85675 148.448 8.07624 148.683 8.18133C149.038 8.17108 148.66 7.89976 148.485 7.92615C149.618 7.82467 151.168 8.22012 152.677 8.35425C153.053 8.38778 154.117 8.31274 154.148 8.35615C154.379 8.69621 156.757 8.38721 157.343 8.95234C156.38 8.95578 155.667 8.73862 154.992 8.94961C154.978 8.86505 154.962 8.77967 154.944 8.69617C154.135 8.77159 152.934 8.87812 152.547 8.43812C152.225 8.48567 152.751 8.57017 152.448 8.69346C152.072 8.54891 152.039 8.34819 151.356 8.35279C151.705 8.53533 149.872 8.6889 149.74 8.35019C149.518 8.38641 149.668 8.61654 149.185 8.51892C148.115 7.91869 147.287 8.75249 146.169 8.09231C145.697 8.04907 146.194 8.51273 145.647 8.43051C146.375 8.58937 146.722 8.84499 147.602 8.68803C148.033 8.90521 147.344 8.80832 147.372 9.02643C147.73 9.21331 147.958 8.94306 148.549 9.0272C148.572 8.92413 148.068 8.73422 148.091 8.94189C147.649 8.70945 148.913 8.78092 149.119 8.94374C149.323 9.22875 148.687 9.07419 148.416 9.11226C149.903 9.47187 151.193 8.66687 152.576 9.3717C152.336 9.42405 152.381 9.62663 152.2 9.71C151.834 9.72427 151.807 9.51978 151.564 9.45453C150.789 9.74641 150.299 9.56634 149.72 9.79268C149.64 9.71692 149.563 9.64081 149.394 9.6229C149.718 9.28257 149.398 9.49601 149.085 9.5372C148.322 9.63686 146.379 9.34924 145.985 9.44838C144.535 9.81463 143.054 9.07507 142.152 9.36012C142.136 9.27544 142.12 9.19077 142.103 9.10527C141.699 9.33295 141.392 9.13787 140.812 9.27375C140.827 9.20476 140.946 9.19023 140.929 9.10473C139.386 9.16016 138.561 8.83441 137.418 9.18591C136.292 8.19432 134.778 9.3632 133.636 8.58769C133.216 8.81375 132.65 8.51856 132.524 8.92574C132.432 8.66897 131.586 8.89812 131.71 8.5007C130.099 8.94594 125.617 8.31945 123.501 8.57678C123.475 8.35889 123.076 8.55989 122.705 8.23664C122.34 8.34841 122.307 8.5153 122.505 8.74498C122.239 8.50614 121.518 8.5592 121.252 8.32035C121.139 8.59287 120.388 8.53285 119.995 8.65842C119.571 8.54919 119.288 8.35361 118.886 8.23224C118.593 8.58191 117.969 8.29693 117.629 8.57031C117.623 8.27533 117.075 8.67443 117.109 8.1464C116.618 8.88716 114.716 8.04871 113.483 8.39613C113.53 8.03209 113.825 8.27289 114.481 8.22734C114.104 7.99738 113.864 7.9622 113.274 8.05662C113.7 7.78908 112.83 8.0245 112.916 7.71748C112.689 7.89551 112.434 7.86459 112.701 8.14126C112.413 8.10582 112.524 7.81251 112.067 7.8859C111.817 8.03472 112.136 8.06154 112.292 8.31009C111.83 8.22291 111.42 8.16981 111.626 7.88467C111.036 7.8333 111.254 8.43244 110.809 8.22245C110.569 8.07355 110.637 8.02937 111.07 8.054C110.288 7.83754 110.047 7.84572 109.145 7.96723C109.568 7.6325 108.568 8.06775 108.949 7.71287C108.686 7.91517 107.534 7.57541 107.792 7.79571C105.368 7.54288 103.819 7.89497 101.412 7.44967C100.847 8.05628 98.9228 6.87223 98.3443 7.53161C97.8865 7.6056 98.0893 7.25185 97.7099 7.27625C96.5721 7.5294 95.7592 7.15147 95.1292 7.61333C93.7137 6.93322 91.1811 7.61186 89.5843 7.01442C88.4112 7.08437 87.1969 7.05946 86.0598 7.01115C85.5903 6.96886 86.0224 7.39879 85.6994 7.43413C85.2582 7.46415 85.3404 7.1575 85.1793 7.01022C83.7614 7.01257 83.2978 7.04192 81.9642 7.09124C83.0016 7.0435 83.7469 7.62421 84.5229 7.43265C84.4123 7.34626 84.1701 7.34504 84.1819 7.17831C84.6398 7.10362 84.4369 7.45736 84.8164 7.43297C84.7422 7.5057 83.9793 7.65012 84.7178 7.68761C83.8371 7.72861 83.1218 7.44296 82.5829 7.26122C82.2431 7.28859 82.5097 7.6313 82.2198 7.68608C81.6644 7.86973 80.0154 7.20201 79.7417 7.76675C79.6584 7.42691 79.4433 7.377 78.5018 7.42727C78.5548 7.16625 78.5744 7.26479 78.4213 7.00377C77.833 7.01795 78.1076 7.47589 78.2242 7.51164C78.2377 7.70135 77.8335 7.4013 77.4898 7.5108C77.3317 7.25003 77.8608 7.34909 77.7041 7.08702C77.5772 7.14916 77.5087 7.24091 77.4581 7.34145C77.2254 7.238 77.1974 7.00285 76.8065 7.002C76.4491 7.04409 76.3584 7.22693 75.9748 7.25521C76.022 7.41819 76.4461 7.15618 76.8552 7.25685C76.8324 7.46096 77.1578 7.44077 77.0805 7.68104C76.0595 7.71395 75.4787 7.60582 74.73 7.67832C74.7511 7.58641 75.0139 7.62155 74.992 7.50786C74.5985 7.33397 74.6267 7.79598 74.3064 7.76118C74.1647 7.56593 74.2859 7.29704 73.4927 7.33766C73.4572 7.51782 73.7326 7.49866 73.9641 7.50742C73.3457 7.88362 71.6784 7.64086 70.7344 7.50388C71.0238 7.23927 71.416 7.21251 71.6307 7.58949C71.887 7.23859 71.8198 7.35678 72.2859 7.16624C71.0314 6.91642 69.2637 7.25455 68.4509 7.07716C68.3743 7.3495 68.7259 7.34313 68.9563 7.41722C69.4498 7.52291 69.0181 7.14279 69.5129 7.24789C69.5788 7.38559 69.4019 7.394 69.4118 7.5016C69.9779 7.59272 69.585 7.18421 70.0998 7.24922C70.0846 7.58701 70.6017 7.158 70.6041 7.58846C68.0007 7.47186 66.7973 7.7061 64.437 7.58157C64.445 7.46853 65.0162 7.42431 64.4053 7.41221C65.6251 7.32315 66.9448 7.27539 68.2232 7.41649C67.745 6.89124 66.245 7.06514 65.3673 7.07442C62.6079 7.10401 59.1006 7.49275 56.997 7.06572C56.8414 7.08679 56.9288 7.23431 56.7351 7.23547C48.8899 7.18181 40.2992 7.76984 33.3331 7.7184C33.4398 7.39126 34.3622 7.4914 35.049 7.46647C34.8316 7.32035 34.3294 7.36105 34.2513 7.12692C32.475 7.38319 29.8534 7.18028 27.6737 7.28875C27.0789 7.31868 26.0227 7.72948 25.6167 7.28704C24.5782 7.65539 23.5369 7.4361 21.8621 7.62288C22.1165 7.42612 21.8096 7.5291 21.6685 7.36804C19.3293 7.51286 16.4927 7.62059 13.7841 7.61438C13.6148 7.50048 13.585 7.29787 13.2799 7.27444C12.8459 7.40113 13.7792 7.64023 13.3749 7.78321C13.1243 7.77836 13.0069 7.84564 12.967 7.95215C12.7228 7.82487 12.3204 7.79949 12.1692 7.61261C11.8711 7.63533 12.2055 7.98719 11.793 7.9502C11.3918 8.02021 11.3907 7.83095 11.0415 7.86528C11.454 7.49977 12.1465 7.64178 13.0194 7.44289C11.4665 7.11124 10.4521 7.48824 8.49867 7.60854C8.34411 7.81957 9.12849 7.87342 8.70941 7.94746C7.80794 7.75612 7.73099 7.52282 6.58909 7.60634C6.79963 7.38417 7.68792 7.51596 7.84595 7.26756C5.55432 7.14303 3.41476 7.75942 0.725312 7.68175C0.880313 7.47929 1.88657 7.3234 1.33421 7.00457C2.40653 6.60879 3.64531 6.77252 4.90976 6.49987C4.60417 6.06607 5.90943 6.1599 6.59026 6.07824C9.71397 5.70426 13.8688 5.00177 17.7775 4.64828C19.3218 4.50837 22.069 4.40866 23.8338 4.06101C23.8393 3.96197 23.7729 3.91027 23.6547 3.89145ZM79.9694 7.42742C80.1411 7.12625 79.4608 7.3765 79.4822 7.17298C80.0555 7.07988 80.6667 7.45041 80.7878 7.08976C80.3154 7.06568 79.4365 6.91342 79.2046 7.25734C79.6438 7.19514 79.5288 7.49092 79.9694 7.42742ZM80.996 7.42916C81.2525 7.4239 81.4588 7.44879 81.6 7.51457C81.8487 7.36564 81.3783 7.26707 81.6669 7.09129C81.4504 6.88125 80.492 7.06008 81.1104 7.2599C81.1014 7.14173 81.4684 7.17164 81.4197 7.34489C81.1925 7.24977 81.0461 7.2532 80.996 7.42916ZM73.3588 7.42118C72.9929 7.40772 73.2644 7.13363 73.2967 7.08189C73.1506 7.08179 73.0033 7.08087 72.8559 7.08136C72.8151 7.2781 73.2024 7.66547 73.3588 7.42118Z" fill="#2091CD"/>
</svg>
