<svg width="35" height="33" viewBox="0 0 35 33" fill="none" xmlns="http://www.w3.org/2000/svg">
<path fill-rule="evenodd" clip-rule="evenodd" d="M17.3001 0.00390625C8.02168 0.00390625 0.500061 7.16735 0.500061 16.0039C0.500061 24.8405 8.02168 32.0039 17.3001 32.0039C26.5784 32.0039 34.1001 24.8405 34.1001 16.0039C34.1001 7.16735 26.5784 0.00390625 17.3001 0.00390625ZM13.6064 7.52226C14.5622 7.48084 14.8676 7.4707 17.301 7.4707H17.2982C19.7323 7.4707 20.0366 7.48084 20.9923 7.52226C21.9462 7.56386 22.5977 7.70768 23.1689 7.91871C23.7588 8.13649 24.2572 8.42805 24.7556 8.90272C25.254 9.37703 25.5601 9.85313 25.7897 10.4144C26.01 10.957 26.1612 11.5771 26.206 12.4855C26.2489 13.3957 26.2601 13.6866 26.2601 16.0041C26.2601 18.3217 26.2489 18.6118 26.206 19.522C26.1612 20.4301 26.01 21.0504 25.7897 21.5932C25.5601 22.1542 25.254 22.6303 24.7556 23.1046C24.2577 23.5793 23.7586 23.8716 23.1695 24.0895C22.5994 24.3006 21.9475 24.4444 20.9937 24.486C20.0379 24.5274 19.7335 24.5375 17.2999 24.5375C14.8666 24.5375 14.5614 24.5274 13.6057 24.486C12.652 24.4444 12.0007 24.3006 11.4306 24.0895C10.8417 23.8716 10.3418 23.5793 9.84394 23.1046C9.34572 22.6303 9.03958 22.1542 8.81054 21.593C8.58915 21.0504 8.43814 20.4303 8.39427 19.5219C8.35096 18.6116 8.34013 18.3217 8.34013 16.0041C8.34013 13.6866 8.35133 13.3956 8.39408 12.4853C8.43702 11.5772 8.58822 10.957 8.81035 10.4142C9.03996 9.85313 9.34609 9.37703 9.8445 8.90272C10.3425 8.42822 10.8424 8.13667 11.4317 7.91871C12.0015 7.70768 12.6526 7.56386 13.6064 7.52226Z" fill="white"/>
<path fill-rule="evenodd" clip-rule="evenodd" d="M16.4972 9.00799C16.6533 9.00776 16.8212 9.00783 17.0024 9.00791L17.301 9.00799C19.6934 9.00799 19.9769 9.01617 20.9217 9.05706C21.7953 9.0951 22.2694 9.23413 22.5853 9.35093C23.0034 9.5056 23.3015 9.69049 23.6149 9.98916C23.9285 10.2878 24.1227 10.5723 24.2854 10.9705C24.4081 11.2709 24.5542 11.7225 24.594 12.5545C24.6369 13.4541 24.6463 13.7243 24.6463 16.0017C24.6463 18.279 24.6369 18.5492 24.594 19.4488C24.554 20.2808 24.4081 20.7324 24.2854 21.0328C24.123 21.4311 23.9285 21.7146 23.6149 22.0131C23.3013 22.3118 23.0036 22.4967 22.5853 22.6513C22.2698 22.7687 21.7953 22.9073 20.9217 22.9454C19.9771 22.9863 19.6934 22.9952 17.301 22.9952C14.9085 22.9952 14.625 22.9863 13.6804 22.9454C12.8068 22.907 12.3327 22.768 12.0166 22.6512C11.5985 22.4965 11.2998 22.3116 10.9862 22.0129C10.6726 21.7143 10.4785 21.4305 10.3157 21.0321C10.1931 20.7317 10.0469 20.2801 10.0071 19.4481C9.96421 18.5485 9.95563 18.2783 9.95563 15.9995C9.95563 13.7208 9.96421 13.452 10.0071 12.5524C10.0471 11.7204 10.1931 11.2688 10.3157 10.968C10.4781 10.5698 10.6726 10.2853 10.9862 9.98667C11.2998 9.688 11.5985 9.50311 12.0166 9.34809C12.3325 9.23075 12.8068 9.09208 13.6804 9.05386C14.507 9.0183 14.8273 9.00764 16.4972 9.00586V9.00799ZM22.0837 10.4244C21.4901 10.4244 21.0085 10.8826 21.0085 11.4481C21.0085 12.0134 21.4901 12.4721 22.0837 12.4721C22.6773 12.4721 23.1589 12.0134 23.1589 11.4481C23.1589 10.8827 22.6773 10.4241 22.0837 10.4241V10.4244ZM12.6997 16.0026C12.6997 13.5826 14.7598 11.6205 17.3009 11.6204C19.842 11.6204 21.9017 13.5825 21.9017 16.0026C21.9017 18.4227 19.8422 20.384 17.3011 20.384C14.7599 20.384 12.6997 18.4227 12.6997 16.0026Z" fill="white"/>
<path fill-rule="evenodd" clip-rule="evenodd" d="M17.3007 13.1592C18.9501 13.1592 20.2874 14.4326 20.2874 16.0037C20.2874 17.5745 18.9501 18.8481 17.3007 18.8481C15.6511 18.8481 14.314 17.5745 14.314 16.0037C14.314 14.4326 15.6511 13.1592 17.3007 13.1592V13.1592Z" fill="white"/>
</svg>
