<svg width="35" height="33" viewBox="0 0 35 33" fill="none" xmlns="http://www.w3.org/2000/svg">
<g opacity="0.25">
<path fill-rule="evenodd" clip-rule="evenodd" d="M17.2999 0.00390625C8.02156 0.00390625 0.499939 7.16735 0.499939 16.0039C0.499939 24.8405 8.02156 32.0039 17.2999 32.0039C26.5783 32.0039 34.0999 24.8405 34.0999 16.0039C34.0999 7.16735 26.5783 0.00390625 17.2999 0.00390625ZM16.8321 13.5622L16.7969 13.0085C16.6911 11.5736 17.6195 10.2629 19.0884 9.75449C19.6289 9.57371 20.5455 9.55112 21.1449 9.7093C21.3799 9.77709 21.8264 10.0031 22.1437 10.2064L22.7195 10.5793L23.3541 10.3872C23.7066 10.2855 24.1767 10.116 24.3882 10.0031C24.588 9.90137 24.7642 9.84488 24.7642 9.87878C24.7642 10.0709 24.3294 10.7262 23.9652 11.0877C23.4716 11.5962 23.6126 11.6414 24.6115 11.3024C25.2108 11.1103 25.2225 11.1103 25.105 11.325C25.0345 11.438 24.6702 11.8335 24.2824 12.195C23.6244 12.8164 23.5891 12.8842 23.5891 13.404C23.5891 14.2062 23.1896 15.8784 22.79 16.7936C22.0497 18.511 20.4633 20.2849 18.8769 21.1775C16.6441 22.4316 13.6711 22.748 11.168 22.0136C10.3337 21.765 8.90005 21.1323 8.90005 21.0193C8.90005 20.9854 9.33485 20.9402 9.86366 20.9289C10.9683 20.9063 12.0729 20.6125 13.013 20.0928L13.6476 19.7312L12.919 19.494C11.8849 19.155 10.9565 18.3754 10.7215 17.641C10.651 17.4037 10.6745 17.3924 11.3326 17.3924L12.0141 17.3811L11.4383 17.1212C10.7568 16.7936 10.1339 16.2399 9.8284 15.675C9.60513 15.2683 9.3231 14.2401 9.40536 14.161C9.42886 14.1271 9.67564 14.1949 9.95767 14.2853C10.7685 14.5677 10.8743 14.4999 10.4042 14.0254C9.52287 13.1667 9.25259 11.8899 9.67564 10.681L9.87541 10.1386L10.651 10.8731C12.2374 12.3532 14.1059 13.2345 16.2446 13.4944L16.8321 13.5622Z" fill="white"/>
</g>
</svg>
