<svg width="35" height="33" viewBox="0 0 35 33" fill="none" xmlns="http://www.w3.org/2000/svg">
<g opacity="0.25">
<path fill-rule="evenodd" clip-rule="evenodd" d="M17.3 0.00390625C8.02162 0.00390625 0.5 7.16735 0.5 16.0039C0.5 24.8405 8.02162 32.0039 17.3 32.0039C26.5784 32.0039 34.1 24.8405 34.1 16.0039C34.1 7.16735 26.5784 0.00390625 17.3 0.00390625ZM24.3012 10.5039C25.0723 10.7054 25.6795 11.2992 25.8856 12.0532C26.2601 13.4197 26.2601 16.271 26.2601 16.271C26.2601 16.271 26.2601 19.1222 25.8856 20.4889C25.6795 21.2429 25.0723 21.8366 24.3012 22.0382C22.9039 22.4044 17.3001 22.4044 17.3001 22.4044C17.3001 22.4044 11.6963 22.4044 10.2989 22.0382C9.52782 21.8366 8.92058 21.2429 8.7145 20.4889C8.34011 19.1222 8.34011 16.271 8.34011 16.271C8.34011 16.271 8.34011 13.4197 8.7145 12.0532C8.92058 11.2992 9.52782 10.7054 10.2989 10.5039C11.6963 10.1377 17.3001 10.1377 17.3001 10.1377C17.3001 10.1377 22.9039 10.1377 24.3012 10.5039Z" fill="white"/>
<path fill-rule="evenodd" clip-rule="evenodd" d="M15.6199 19.2035V13.8701L20.0999 16.5369L15.6199 19.2035Z" fill="white"/>
</g>
</svg>
